<svg width="180" height="180" viewBox="0 0 180 180" fill="none" xmlns="http://www.w3.org/2000/svg">
<g clip-path="url(#clip0_29_4)">
<circle cx="90" cy="90" r="85" fill="black"/>
<path d="M80.995 60.0909V73.017H40.2315V60.0909H80.995ZM50.2955 43.1023H67.0071V109.672C67.0071 111.919 67.3456 113.642 68.0227 114.842C68.7306 116.012 69.6539 116.812 70.7926 117.243C71.9313 117.674 73.1932 117.889 74.5781 117.889C75.6245 117.889 76.5786 117.812 77.4403 117.658C78.3329 117.504 79.0099 117.366 79.4716 117.243L82.2876 130.308C81.3951 130.615 80.1179 130.954 78.456 131.323C76.8248 131.692 74.8243 131.908 72.4545 131.969C68.2689 132.093 64.4988 131.462 61.1442 130.077C57.7895 128.661 55.1274 126.476 53.1577 123.521C51.2188 120.567 50.2647 116.874 50.2955 112.442V43.1023ZM108.686 132.101C105.229 132.101 102.116 131.485 99.3464 130.254C96.6002 129 94.4222 127.153 92.8123 124.714C91.2261 122.276 90.4331 119.269 90.4331 115.695C90.4331 112.617 91.0012 110.072 92.1376 108.06C93.274 106.047 94.8246 104.438 96.7896 103.23C98.7546 102.023 100.968 101.111 103.43 100.496C105.916 99.8565 108.485 99.3949 111.136 99.1108C114.332 98.7794 116.925 98.4834 118.913 98.223C120.902 97.9389 122.346 97.5128 123.246 96.9446C124.169 96.3527 124.631 95.4413 124.631 94.2102V93.9972C124.631 91.322 123.837 89.2505 122.251 87.7827C120.665 86.3149 118.381 85.581 115.398 85.581C112.249 85.581 109.751 86.2675 107.905 87.6406C106.082 89.0137 104.851 90.6354 104.211 92.5057L92.2086 90.8011C93.1556 87.4867 94.7181 84.7169 96.8961 82.4915C99.0742 80.2424 101.738 78.5616 104.886 77.4489C108.035 76.3125 111.515 75.7443 115.327 75.7443C117.954 75.7443 120.57 76.0521 123.175 76.6676C125.779 77.2831 128.158 78.3011 130.312 79.7216C132.467 81.1184 134.195 83.0241 135.497 85.4389C136.823 87.8537 137.486 90.8722 137.486 94.4943V131H125.128V123.507H124.702C123.92 125.022 122.819 126.443 121.399 127.768C120.002 129.071 118.238 130.124 116.108 130.929C114.001 131.71 111.527 132.101 108.686 132.101ZM112.024 122.655C114.604 122.655 116.842 122.146 118.736 121.128C120.63 120.086 122.086 118.713 123.104 117.009C124.145 115.304 124.666 113.446 124.666 111.433V105.006C124.264 105.337 123.577 105.645 122.606 105.929C121.659 106.213 120.594 106.462 119.41 106.675C118.227 106.888 117.055 107.077 115.895 107.243C114.735 107.409 113.729 107.551 112.876 107.669C110.959 107.929 109.242 108.356 107.727 108.947C106.212 109.539 105.016 110.368 104.14 111.433C103.265 112.475 102.827 113.824 102.827 115.482C102.827 117.849 103.691 119.636 105.419 120.844C107.147 122.051 109.349 122.655 112.024 122.655Z" fill="white"/>
</g>
<defs>
<clipPath id="clip0_29_4">
<rect width="180" height="180" fill="white"/>
</clipPath>
</defs>
</svg>
